<mxfile host="app.diagrams.net" modified="2024-05-02T09:24:54.439Z" agent="Mozilla/5.0 (Windows NT 10.0; Win64; x64) AppleWebKit/537.36 (KHTML, like Gecko) Chrome/124.0.0.0 Safari/537.36" etag="AY5SX6zsNB10D2hmjUdg" version="24.3.1" type="device">
  <diagram name="Page-1" id="PYa_B0UOMsMEbXfOGBhj">
    <mxGraphModel dx="1687" dy="922" grid="1" gridSize="30" guides="1" tooltips="1" connect="0" arrows="0" fold="1" page="1" pageScale="1" pageWidth="1300" pageHeight="5000" background="#f9f9f9" math="0" shadow="0">
      <root>
        <object label="" folderName="Test Folder" formName="Test Form" transformer="Curtis Reet" id="0">
          <mxCell />
        </object>
        <mxCell id="1" parent="0" />
        <mxCell id="eloWXBAHNFtA7XlKs6_3-110" value="" style="group;movable=0;resizable=0;rotatable=0;deletable=0;editable=0;locked=1;connectable=0;" parent="1" vertex="1" connectable="0">
          <mxGeometry x="100" y="170" width="860" height="150" as="geometry" />
        </mxCell>
        <mxCell id="eloWXBAHNFtA7XlKs6_3-24" value="" style="verticalLabelPosition=bottom;verticalAlign=top;html=1;shape=mxgraph.basic.corner_round_rect;dx=6;whiteSpace=wrap;strokeColor=#E2E2E2;" parent="eloWXBAHNFtA7XlKs6_3-110" vertex="1">
          <mxGeometry width="470" height="40" as="geometry" />
        </mxCell>
        <mxCell id="eloWXBAHNFtA7XlKs6_3-25" value="" style="verticalLabelPosition=bottom;verticalAlign=top;html=1;shape=mxgraph.basic.corner_round_rect;dx=6;whiteSpace=wrap;strokeColor=#E2E2E2;flipH=1;" parent="eloWXBAHNFtA7XlKs6_3-110" vertex="1">
          <mxGeometry x="390" width="470" height="40" as="geometry" />
        </mxCell>
        <mxCell id="eloWXBAHNFtA7XlKs6_3-26" value="" style="rounded=0;whiteSpace=wrap;html=1;strokeColor=none;" parent="eloWXBAHNFtA7XlKs6_3-110" vertex="1">
          <mxGeometry x="326" y="0.5" width="120" height="39" as="geometry" />
        </mxCell>
        <mxCell id="eloWXBAHNFtA7XlKs6_3-35" value="" style="rounded=0;whiteSpace=wrap;html=1;strokeColor=none;movable=1;resizable=1;rotatable=1;deletable=1;editable=1;locked=0;connectable=1;" parent="eloWXBAHNFtA7XlKs6_3-110" vertex="1">
          <mxGeometry y="20" width="860" height="130" as="geometry" />
        </mxCell>
        <mxCell id="eloWXBAHNFtA7XlKs6_3-32" value="" style="group;strokeColor=none;movable=0;resizable=0;rotatable=0;deletable=0;editable=0;locked=1;connectable=0;" parent="1" vertex="1" connectable="0">
          <mxGeometry x="90" y="90" width="880" height="76" as="geometry" />
        </mxCell>
        <mxCell id="vtonedodYNT9AfmeP7sY-2" value="" style="rounded=0;whiteSpace=wrap;html=1;shadow=0;strokeColor=none;fillColor=#f6f6f6;" parent="eloWXBAHNFtA7XlKs6_3-32" vertex="1">
          <mxGeometry y="23" width="882" height="53" as="geometry" />
        </mxCell>
        <mxCell id="eloWXBAHNFtA7XlKs6_3-38" value="" style="endArrow=none;html=1;rounded=0;exitX=0;exitY=1;exitDx=0;exitDy=0;entryX=1;entryY=1;entryDx=0;entryDy=0;strokeColor=#DDDDDD;" parent="eloWXBAHNFtA7XlKs6_3-32" source="vtonedodYNT9AfmeP7sY-2" target="vtonedodYNT9AfmeP7sY-2" edge="1">
          <mxGeometry width="50" height="50" relative="1" as="geometry">
            <mxPoint x="240" y="180" as="sourcePoint" />
            <mxPoint x="290" y="130" as="targetPoint" />
          </mxGeometry>
        </mxCell>
        <mxCell id="eloWXBAHNFtA7XlKs6_3-50" value="" style="strokeWidth=1;html=1;shadow=0;dashed=0;shape=stencil(tVTtDoIgFH0a/jaEXPzt8z1IKVkEDunr7UOuVujSVWtzY/ecec65l6uILquClwIRzKtSZA7RFSLkzK3kW+Vh4pkCQIqh1PwoAJlnThrtoQW3wFXOmoO4yNw1L0ldCCsdsBfAGAtKdI3w3KP1Q5eZ0VoEvSpgmw6/M1bsrTnpPCJa2tbZe1FjQ4KvUDfVLaq6lg9jqdQADR1nRhk/AgxnkEU+BR7RLnk9px7R0kdzFs/UndjJoHYroaR+kUhoLJF+LtFJMTY9j79psh3dyOi/nGy8DyRah4RF28CmadQS+2kffjBOyGTwQv7qPfvKOVxw79MMKPxXAnAH);fillColor=#03A9F4;strokeColor=#c0c0c0;strokeWidth=2;whiteSpace=wrap;" parent="eloWXBAHNFtA7XlKs6_3-32" vertex="1">
          <mxGeometry width="882" height="40" as="geometry" />
        </mxCell>
        <object label="%formName%" placeholders="1" id="eloWXBAHNFtA7XlKs6_3-44">
          <mxCell style="text;html=1;align=left;verticalAlign=middle;whiteSpace=wrap;rounded=0;fontStyle=1;fontColor=#FFFFFF;fontSize=14;" parent="eloWXBAHNFtA7XlKs6_3-32" vertex="1">
            <mxGeometry x="40" width="800" height="40" as="geometry" />
          </mxCell>
        </object>
        <mxCell id="eloWXBAHNFtA7XlKs6_3-54" value="" style="shape=actor;whiteSpace=wrap;html=1;fillColor=#000000;container=0;comic=0;fillOpacity=100;strokeOpacity=100;" parent="eloWXBAHNFtA7XlKs6_3-32" vertex="1">
          <mxGeometry x="10" y="50" width="10" height="15" as="geometry" />
        </mxCell>
        <mxCell id="eloWXBAHNFtA7XlKs6_3-56" value="&lt;b style=&quot;&quot;&gt;&lt;sup style=&quot;&quot;&gt;&lt;i style=&quot;&quot;&gt;&lt;font style=&quot;font-size: 7px;&quot;&gt;Name:&lt;/font&gt;&lt;/i&gt;&lt;/sup&gt;&lt;font size=&quot;1&quot;&gt;XXTEST, Patient (Miss)&amp;nbsp;&lt;/font&gt;&lt;sup style=&quot;&quot;&gt;&lt;i style=&quot;&quot;&gt;&lt;font style=&quot;font-size: 7px;&quot;&gt;DoB:&lt;/font&gt;&lt;/i&gt;&lt;/sup&gt;&lt;font size=&quot;1&quot;&gt;1 Jan 1900&amp;nbsp;&lt;/font&gt;&lt;sup style=&quot;&quot;&gt;&lt;i style=&quot;&quot;&gt;&lt;font style=&quot;font-size: 7px;&quot;&gt;Gender:&lt;/font&gt;&lt;/i&gt;&lt;/sup&gt;&lt;font size=&quot;1&quot;&gt;Female&amp;nbsp;&lt;/font&gt;&lt;sup style=&quot;&quot;&gt;&lt;i style=&quot;&quot;&gt;&lt;font style=&quot;font-size: 7px;&quot;&gt;NHS:&lt;/font&gt;&lt;/i&gt;&lt;/sup&gt;&lt;font size=&quot;1&quot;&gt;N/A&lt;/font&gt;&lt;/b&gt;" style="text;html=1;align=center;verticalAlign=middle;whiteSpace=wrap;rounded=0;" parent="eloWXBAHNFtA7XlKs6_3-32" vertex="1">
          <mxGeometry x="259.5" y="42.5" width="361" height="30" as="geometry" />
        </mxCell>
        <object label="Form Name:" id="eloWXBAHNFtA7XlKs6_3-58">
          <mxCell style="text;html=1;strokeColor=none;fillColor=none;align=left;verticalAlign=middle;whiteSpace=wrap;rounded=0;" parent="1" vertex="1">
            <mxGeometry x="1060" width="80" height="40" as="geometry" />
          </mxCell>
        </object>
        <object placeholder="formName" placeholders="1" label="Test Form" id="eloWXBAHNFtA7XlKs6_3-59">
          <mxCell style="text;html=1;strokeColor=none;fillColor=none;align=left;verticalAlign=middle;whiteSpace=wrap;rounded=0;glass=0;" parent="1" vertex="1">
            <mxGeometry x="1140" width="160" height="40" as="geometry" />
          </mxCell>
        </object>
        <object label="Folder Name:" id="eloWXBAHNFtA7XlKs6_3-60">
          <mxCell style="text;html=1;strokeColor=none;fillColor=none;align=left;verticalAlign=middle;whiteSpace=wrap;rounded=0;" parent="1" vertex="1">
            <mxGeometry x="1060" y="40" width="80" height="40" as="geometry" />
          </mxCell>
        </object>
        <object label="Transformer:" id="eloWXBAHNFtA7XlKs6_3-61">
          <mxCell style="text;html=1;strokeColor=none;fillColor=none;align=left;verticalAlign=middle;whiteSpace=wrap;rounded=0;" parent="1" vertex="1">
            <mxGeometry x="1060" y="80" width="80" height="40" as="geometry" />
          </mxCell>
        </object>
        <object placeholder="folderName" placeholders="1" label="Test Folder" id="eloWXBAHNFtA7XlKs6_3-62">
          <mxCell style="text;html=1;strokeColor=none;fillColor=none;align=left;verticalAlign=middle;whiteSpace=wrap;rounded=0;" parent="1" vertex="1">
            <mxGeometry x="1140" y="40" width="160" height="40" as="geometry" />
          </mxCell>
        </object>
        <object placeholder="transformer" placeholders="1" label="Curtis Reet" id="eloWXBAHNFtA7XlKs6_3-63">
          <mxCell style="text;html=1;strokeColor=none;fillColor=none;align=left;verticalAlign=middle;whiteSpace=wrap;rounded=0;" parent="1" vertex="1">
            <mxGeometry x="1140" y="80" width="160" height="40" as="geometry" />
          </mxCell>
        </object>
        <object label="" placeholders="1" fieldType="Date and Time" tooltip="&lt;b&gt;fieldType:&lt;/b&gt; %fieldType%" id="eloWXBAHNFtA7XlKs6_3-64">
          <mxCell style="group;recursiveResize=0;fillColor=none;movable=0;resizable=0;rotatable=0;deletable=0;editable=0;locked=1;connectable=0;rounded=0;" parent="1" vertex="1" connectable="0">
            <mxGeometry x="90" y="210" width="880" height="60" as="geometry" />
          </mxCell>
        </object>
        <object label="" placeholders="1" tooltip="&lt;b&gt;fieldType:&lt;/b&gt; %fieldType%" id="eloWXBAHNFtA7XlKs6_3-68">
          <mxCell style="verticalLabelPosition=bottom;verticalAlign=top;html=1;shape=mxgraph.basic.rect;fillColor2=none;strokeWidth=1;size=20;indent=5;fillColor=default;strokeColor=none;" parent="eloWXBAHNFtA7XlKs6_3-64" vertex="1">
            <mxGeometry x="10.5" width="859" height="60" as="geometry" />
          </mxCell>
        </object>
        <object label="&lt;font&gt;Date/time&lt;/font&gt;" placeholders="1" tooltip="&lt;b&gt;fieldType:&lt;/b&gt; %fieldType%" id="eloWXBAHNFtA7XlKs6_3-66">
          <mxCell style="text;html=1;strokeColor=none;fillColor=none;align=left;verticalAlign=middle;whiteSpace=wrap;rounded=0;fontFamily=Arimo;fontSource=https%3A%2F%2Ffonts.googleapis.com%2Fcss%3Ffamily%3DArimo;fontSize=10;fontStyle=1;fontColor=#2D77B5;" parent="eloWXBAHNFtA7XlKs6_3-64" vertex="1">
            <mxGeometry x="20" width="840" height="20" as="geometry" />
          </mxCell>
        </object>
        <object label="" placeholders="1" tooltip="&lt;b&gt;fieldType:&lt;/b&gt; %fieldType%" id="eloWXBAHNFtA7XlKs6_3-75">
          <mxCell style="verticalLabelPosition=bottom;shadow=0;dashed=1;align=center;html=1;verticalAlign=top;strokeWidth=1;shape=mxgraph.mockup.markup.line;strokeColor=#DEDEDE;fillColor=#DEDEDE;movable=0;resizable=0;rotatable=0;deletable=0;editable=0;locked=1;connectable=0;rounded=0;" parent="eloWXBAHNFtA7XlKs6_3-64" vertex="1">
            <mxGeometry x="15" y="56" width="850" height="4" as="geometry" />
          </mxCell>
        </object>
        <object label="" placeholders="1" tooltip="&lt;b&gt;fieldType:&lt;/b&gt; %fieldType%" id="eloWXBAHNFtA7XlKs6_3-76">
          <mxCell style="endArrow=none;html=1;rounded=0;strokeColor=#E2E2E2;movable=0;resizable=0;rotatable=0;deletable=0;editable=0;locked=1;connectable=0;" parent="eloWXBAHNFtA7XlKs6_3-64" edge="1">
            <mxGeometry width="50" height="50" relative="1" as="geometry">
              <mxPoint x="10" as="sourcePoint" />
              <mxPoint x="10" y="60" as="targetPoint" />
            </mxGeometry>
          </mxCell>
        </object>
        <object label="" placeholders="1" tooltip="&lt;b&gt;fieldType:&lt;/b&gt; %fieldType%" id="eloWXBAHNFtA7XlKs6_3-78">
          <mxCell style="endArrow=none;html=1;rounded=0;strokeColor=#E2E2E2;movable=0;resizable=0;rotatable=0;deletable=0;editable=0;locked=1;connectable=0;" parent="eloWXBAHNFtA7XlKs6_3-64" edge="1">
            <mxGeometry width="50" height="50" relative="1" as="geometry">
              <mxPoint x="870" as="sourcePoint" />
              <mxPoint x="870" y="60" as="targetPoint" />
            </mxGeometry>
          </mxCell>
        </object>
        <object label="&lt;p style=&quot;line-height: 114%; margin-top: 0px; margin-bottom: 0px;&quot;&gt;&lt;span style=&quot;font-family: Arimo; font-size: 10px;&quot;&gt;31 Jan 1900 12:00&lt;/span&gt;&lt;/p&gt;" placeholders="1" tooltip="&lt;b&gt;fieldType:&lt;/b&gt; %fieldType%" id="eloWXBAHNFtA7XlKs6_3-80">
          <mxCell style="rounded=1;whiteSpace=wrap;html=1;fillColor=#FFD9F1;strokeColor=#DDDDDD;align=left;spacing=0;spacingLeft=5;spacingBottom=0;verticalAlign=top;" parent="eloWXBAHNFtA7XlKs6_3-64" vertex="1">
            <mxGeometry x="20" y="25" width="840" height="25" as="geometry" />
          </mxCell>
        </object>
        <object label="" id="eloWXBAHNFtA7XlKs6_3-69">
          <mxCell style="group;recursiveResize=0;fillColor=none;movable=0;resizable=0;rotatable=0;deletable=0;editable=0;locked=1;connectable=0;rounded=0;" parent="1" vertex="1" connectable="0">
            <mxGeometry x="90" y="170" width="870" height="40" as="geometry" />
          </mxCell>
        </object>
        <object label="" id="eloWXBAHNFtA7XlKs6_3-71">
          <mxCell style="verticalLabelPosition=bottom;shadow=0;dashed=1;align=center;html=1;verticalAlign=top;strokeWidth=1;shape=mxgraph.mockup.markup.line;strokeColor=#DEDEDE;fillColor=#DEDEDE;movable=0;resizable=0;rotatable=0;deletable=0;editable=0;locked=1;connectable=0;rounded=0;" parent="eloWXBAHNFtA7XlKs6_3-69" vertex="1">
            <mxGeometry x="15" y="36" width="850" height="4" as="geometry" />
          </mxCell>
        </object>
        <object label="Client" id="eloWXBAHNFtA7XlKs6_3-72">
          <mxCell style="text;html=1;strokeColor=none;fillColor=none;align=left;verticalAlign=middle;whiteSpace=wrap;rounded=0;fontFamily=Arimo;fontSource=https%3A%2F%2Ffonts.googleapis.com%2Fcss%3Ffamily%3DArimo;fontSize=10;fontStyle=1;fontColor=#2D77B5;" parent="eloWXBAHNFtA7XlKs6_3-69" vertex="1">
            <mxGeometry x="20" width="840" height="15" as="geometry" />
          </mxCell>
        </object>
        <object label="&lt;span style=&quot;font-weight: 400;&quot;&gt;XXTEST, Patient - 10000001&lt;/span&gt;" id="eloWXBAHNFtA7XlKs6_3-73">
          <mxCell style="text;html=1;strokeColor=none;fillColor=none;align=left;verticalAlign=middle;whiteSpace=wrap;rounded=0;fontFamily=Arimo;fontSource=https%3A%2F%2Ffonts.googleapis.com%2Fcss%3Ffamily%3DArimo;fontSize=10;fontStyle=1;fontColor=#666;" parent="eloWXBAHNFtA7XlKs6_3-69" vertex="1">
            <mxGeometry x="20" y="15" width="840" height="15" as="geometry" />
          </mxCell>
        </object>
        <mxCell id="eloWXBAHNFtA7XlKs6_3-37" value="" style="endArrow=none;html=1;rounded=0;strokeColor=#E2E2E2;entryX=0.906;entryY=1.003;entryDx=0;entryDy=0;entryPerimeter=0;" parent="eloWXBAHNFtA7XlKs6_3-69" edge="1">
          <mxGeometry width="50" height="50" relative="1" as="geometry">
            <mxPoint x="870" y="20" as="sourcePoint" />
            <mxPoint x="870" y="40" as="targetPoint" />
          </mxGeometry>
        </mxCell>
        <mxCell id="eloWXBAHNFtA7XlKs6_3-89" value="" style="endArrow=none;html=1;rounded=0;strokeColor=#E2E2E2;entryX=0.906;entryY=1.003;entryDx=0;entryDy=0;entryPerimeter=0;" parent="eloWXBAHNFtA7XlKs6_3-69" edge="1">
          <mxGeometry width="50" height="50" relative="1" as="geometry">
            <mxPoint x="10" y="20" as="sourcePoint" />
            <mxPoint x="10" y="40" as="targetPoint" />
          </mxGeometry>
        </mxCell>
        <mxCell id="eloWXBAHNFtA7XlKs6_3-321" value="" style="group;movable=0;resizable=0;rotatable=0;deletable=0;editable=0;locked=1;connectable=0;" parent="1" vertex="1" connectable="0">
          <mxGeometry x="6" y="6" width="1044" height="324" as="geometry" />
        </mxCell>
        <mxCell id="eloWXBAHNFtA7XlKs6_3-107" value="" style="rounded=1;whiteSpace=wrap;html=1;strokeColor=none;fillColor=#666666;gradientColor=#888888;" parent="eloWXBAHNFtA7XlKs6_3-321" vertex="1">
          <mxGeometry y="154" width="20" height="40" as="geometry" />
        </mxCell>
        <mxCell id="eloWXBAHNFtA7XlKs6_3-105" value="" style="rounded=1;whiteSpace=wrap;html=1;fillColor=#444444;strokeColor=none;" parent="eloWXBAHNFtA7XlKs6_3-321" vertex="1">
          <mxGeometry x="234" width="60" height="20" as="geometry" />
        </mxCell>
        <mxCell id="eloWXBAHNFtA7XlKs6_3-104" value="" style="rounded=1;whiteSpace=wrap;html=1;strokeColor=none;fillColor=#444444;" parent="eloWXBAHNFtA7XlKs6_3-321" vertex="1">
          <mxGeometry x="174" width="60" height="20" as="geometry" />
        </mxCell>
        <mxCell id="eloWXBAHNFtA7XlKs6_3-6" value="" style="ellipse;whiteSpace=wrap;html=1;aspect=fixed;strokeColor=none;fillColor=#666666;" parent="eloWXBAHNFtA7XlKs6_3-321" vertex="1">
          <mxGeometry x="4" y="4" width="90" height="90" as="geometry" />
        </mxCell>
        <mxCell id="eloWXBAHNFtA7XlKs6_3-7" value="" style="ellipse;whiteSpace=wrap;html=1;aspect=fixed;strokeColor=none;fillColor=#666666;" parent="eloWXBAHNFtA7XlKs6_3-321" vertex="1">
          <mxGeometry x="954" y="4" width="90" height="90" as="geometry" />
        </mxCell>
        <mxCell id="eloWXBAHNFtA7XlKs6_3-8" value="" style="rounded=0;whiteSpace=wrap;html=1;strokeColor=none;fillColor=#666666;movable=1;resizable=1;rotatable=1;deletable=1;editable=1;locked=0;connectable=1;" parent="eloWXBAHNFtA7XlKs6_3-321" vertex="1">
          <mxGeometry x="54" y="4" width="950" height="80" as="geometry" />
        </mxCell>
        <mxCell id="eloWXBAHNFtA7XlKs6_3-11" value="" style="ellipse;whiteSpace=wrap;html=1;aspect=fixed;fillColor=default;strokeColor=none;movable=1;resizable=1;rotatable=1;deletable=1;editable=1;locked=0;connectable=1;" parent="eloWXBAHNFtA7XlKs6_3-321" vertex="1">
          <mxGeometry x="521.5" y="41.5" width="15" height="15" as="geometry" />
        </mxCell>
        <mxCell id="eloWXBAHNFtA7XlKs6_3-17" value="" style="rounded=0;whiteSpace=wrap;html=1;strokeColor=none;fillColor=#666666;" parent="eloWXBAHNFtA7XlKs6_3-321" vertex="1">
          <mxGeometry x="964" y="44" width="80" height="50" as="geometry" />
        </mxCell>
        <mxCell id="eloWXBAHNFtA7XlKs6_3-10" value="" style="rounded=0;whiteSpace=wrap;html=1;strokeColor=none;fillColor=#666666;gradientColor=#F9F9F9;" parent="eloWXBAHNFtA7XlKs6_3-321" vertex="1">
          <mxGeometry x="964" y="84" width="80" height="240" as="geometry" />
        </mxCell>
        <mxCell id="eloWXBAHNFtA7XlKs6_3-18" value="" style="rounded=0;whiteSpace=wrap;html=1;strokeColor=none;fillColor=#666666;" parent="eloWXBAHNFtA7XlKs6_3-321" vertex="1">
          <mxGeometry x="4" y="44" width="80" height="50" as="geometry" />
        </mxCell>
        <mxCell id="eloWXBAHNFtA7XlKs6_3-19" value="" style="rounded=0;whiteSpace=wrap;html=1;strokeColor=none;fillColor=#666666;gradientColor=#F9F9F9;" parent="eloWXBAHNFtA7XlKs6_3-321" vertex="1">
          <mxGeometry x="4" y="84" width="80" height="240" as="geometry" />
        </mxCell>
        <mxCell id="eloWXBAHNFtA7XlKs6_3-319" value="" style="html=1;verticalLabelPosition=bottom;labelBackgroundColor=#ffffff;verticalAlign=top;shadow=0;dashed=0;strokeWidth=2;shape=mxgraph.ios7.misc.circle;strokeColor=#222222;fillColor=none;aspect=fixed;movable=1;resizable=1;rotatable=1;deletable=1;editable=1;locked=0;connectable=1;" parent="eloWXBAHNFtA7XlKs6_3-321" vertex="1">
          <mxGeometry x="522" y="42" width="14" height="14" as="geometry" />
        </mxCell>
      </root>
    </mxGraphModel>
  </diagram>
</mxfile>
